<?xml version="1.0" encoding="UTF-8"?>
<svg viewBox="0 0 533.33 533.33" xmlns="http://www.w3.org/2000/svg">
 <g fill="#fff" fill-rule="evenodd" stroke="#414141" stroke-linejoin="round">
  <g stroke-width="11.299">
   <path d="m173.51 438.16s-74.574-10.826-92.574-23.005-28.286-13.533-37.287-40.598c-2.5715-29.772-10.286-44.658 0-64.957s34.715-37.891 50.144-55.484c15.429-17.592 172.29-138.03 182.58-143.45 5.143-1.3533 18-12.179 39.858-16.239 20.572-2.7065 39.858-6.7663 66.859-6.7663s56.573 9.4728 73.288 14.886c16.715 5.4131 16.715 5.4131 16.715 5.4131"/>
   <path d="m152.38 308.8c16.178-17.298 194.14-167.65 246.72-182.29 52.579-14.636 76.846-21.289 86.283-7.9835 9.4371 13.306 18.874 31.934 18.874 43.909s-4.0445 49.232-4.0445 49.232-306.04 220.88-312.78 222.21c-6.7408 1.3306-14.83 14.636-26.963-2.6612-12.134-17.298-28.312-23.95-28.312-55.885 4.0445-37.256 6.7408-53.223 20.222-66.529z"/>
  </g>
  <g stroke-width="9.039">
   <path d="m168.05 189.38c2.7253 0 85.925 32.397 85.925 32.397s80.397-63.156 114.46-84.207c36.792-12.631 95.386-26.666 95.386-26.666s-62.682-21.052-81.76-19.648c-5.4506 0-81.76 7.0173-92.661 12.631-16.352 5.6138-119.99 86.896-121.35 85.493z"/>
   <path d="m253.97 221.18l100.84 98.242s86.524-64.866 140.24-105.1c10.563-27.609 4.2003-47.871 2.8376-59.099s-13.627-46.314-29.979-44.911c-24.528 0-74.946 11.228-110.38 28.069-32.704 23.859-106.29 85.611-103.56 82.804z"/>
   <path d="m49.956 375.82l102.38 21.337 337.78-263.71s6.4116 11.914 6.4116 13.246-339.08 266.4-339.08 266.4l-102.37-22.644-5.1183-14.627z"/>
  </g>
 </g>
</svg>
