<svg viewBox="0 0 533.33 533.33" xmlns="http://www.w3.org/2000/svg">
<path fill-rule="evenodd" clip-rule="evenodd" d="M173.51 438.16C173.51 438.16 98.936 427.334 80.936 415.155C62.936 402.976 52.65 401.622 43.649 374.557C41.0775 344.785 33.363 329.899 43.649 309.6C53.935 289.301 78.364 271.709 93.793 254.116C109.222 236.524 266.083 116.086 276.373 110.666C281.516 109.313 294.373 98.487 316.231 94.427C336.803 91.7205 356.089 87.6607 383.09 87.6607C410.091 87.6607 439.663 97.1335 456.378 102.547C473.093 107.96 473.093 107.96 473.093 107.96" fill="white"/>
<path d="M173.51 438.16C173.51 438.16 98.936 427.334 80.936 415.155C62.936 402.976 52.65 401.622 43.649 374.557C41.0775 344.785 33.363 329.899 43.649 309.6C53.935 289.301 78.364 271.709 93.793 254.116C109.222 236.524 266.083 116.086 276.373 110.666C281.516 109.313 294.373 98.487 316.231 94.427C336.803 91.7205 356.089 87.6607 383.09 87.6607C410.091 87.6607 439.663 97.1335 456.378 102.547C473.093 107.96 473.093 107.96 473.093 107.96" stroke="#414141" stroke-width="11.299" stroke-linejoin="round"/>
<path fill-rule="evenodd" clip-rule="evenodd" d="M152.38 308.8C168.558 291.502 346.52 141.15 399.1 126.51C451.679 111.874 475.946 105.221 485.383 118.526C494.82 131.832 504.257 150.46 504.257 162.435C504.257 174.41 500.212 211.667 500.212 211.667C500.212 211.667 194.172 432.548 187.432 433.878C180.692 435.208 172.602 448.514 160.469 431.216C148.335 413.918 132.158 407.266 132.158 375.331C136.202 338.075 138.898 322.108 152.38 308.802L152.38 308.8Z" fill="white" stroke="#414141" stroke-width="11.299" stroke-linejoin="round"/>
<path fill-rule="evenodd" clip-rule="evenodd" d="M168.05 189.38C170.775 189.38 253.975 221.777 253.975 221.777C253.975 221.777 334.372 158.621 368.435 137.57C405.227 124.939 463.821 110.904 463.821 110.904C463.821 110.904 401.139 89.852 382.061 91.256C376.61 91.256 300.301 98.2733 289.4 103.887C273.048 109.501 169.41 190.783 168.05 189.38V189.38Z" fill="white" stroke="#414141" stroke-width="9.039" stroke-linejoin="round"/>
<path fill-rule="evenodd" clip-rule="evenodd" d="M253.97 221.18L354.81 319.422C354.81 319.422 441.334 254.556 495.05 214.322C505.613 186.713 499.25 166.451 497.888 155.223C496.525 143.995 484.261 108.909 467.909 110.312C443.381 110.312 392.963 121.54 357.529 138.381C324.825 162.24 251.239 223.992 253.969 221.185L253.97 221.18Z" fill="white" stroke="#414141" stroke-width="9.039" stroke-linejoin="round"/>
<path fill-rule="evenodd" clip-rule="evenodd" d="M49.956 375.82L152.336 397.157L490.116 133.447C490.116 133.447 496.528 145.361 496.528 146.693C496.528 148.025 157.448 413.093 157.448 413.093L55.0776 390.449L49.9593 375.822L49.956 375.82Z" fill="white" stroke="#414141" stroke-width="9.039" stroke-linejoin="round"/>
</svg>
