<svg viewBox="0 0 533.33 533.33" xmlns="http://www.w3.org/2000/svg">
<g clip-path="url(#clip0_101_2)">
<path fill-rule="evenodd" clip-rule="evenodd" d="M173.51 438.16C173.51 438.16 98.936 427.334 80.936 415.155C62.936 402.976 52.65 401.622 43.649 374.557C41.0775 344.785 33.363 329.899 43.649 309.6C53.935 289.301 78.364 271.709 93.793 254.116C109.222 236.524 266.083 116.086 276.373 110.666C281.516 109.313 294.373 98.487 316.231 94.427C336.803 91.7205 356.089 87.6607 383.09 87.6607C410.091 87.6607 439.663 97.1335 456.378 102.547C473.093 107.96 473.093 107.96 473.093 107.96" fill="white"/>
<path d="M173.51 438.16C173.51 438.16 98.936 427.334 80.936 415.155C62.936 402.976 52.65 401.622 43.649 374.557C41.0775 344.785 33.363 329.899 43.649 309.6C53.935 289.301 78.364 271.709 93.793 254.116C109.222 236.524 266.083 116.086 276.373 110.666C281.516 109.313 294.373 98.487 316.231 94.427C336.803 91.7205 356.089 87.6607 383.09 87.6607C410.091 87.6607 439.663 97.1335 456.378 102.547C473.093 107.96 473.093 107.96 473.093 107.96" stroke="#414141" stroke-width="11.299" stroke-linejoin="round"/>
<path fill-rule="evenodd" clip-rule="evenodd" d="M152.38 308.8C168.558 291.502 346.52 141.15 399.1 126.51C451.679 111.874 475.946 105.221 485.383 118.526C494.82 131.832 504.257 150.46 504.257 162.435C504.257 174.41 500.212 211.667 500.212 211.667C500.212 211.667 194.172 432.548 187.432 433.878C180.692 435.208 172.602 448.514 160.469 431.216C148.335 413.918 132.157 407.266 132.157 375.331C136.202 338.075 138.898 322.108 152.379 308.802L152.38 308.8Z" fill="white" stroke="#414141" stroke-width="11.299" stroke-linejoin="round"/>
<path fill-rule="evenodd" clip-rule="evenodd" d="M168.05 189.38C170.775 189.38 253.975 221.777 253.975 221.777C253.975 221.777 334.372 158.621 368.435 137.57C405.227 124.939 463.821 110.904 463.821 110.904C463.821 110.904 401.139 89.852 382.061 91.256C376.61 91.256 300.301 98.2733 289.4 103.887C273.048 109.501 169.41 190.783 168.05 189.38V189.38Z" fill="white" stroke="#414141" stroke-width="9.039" stroke-linejoin="round"/>
<path fill-rule="evenodd" clip-rule="evenodd" d="M253.97 221.18L354.81 319.422C354.81 319.422 441.334 254.556 495.05 214.322C505.613 186.713 499.25 166.451 497.888 155.223C496.525 143.995 484.261 108.909 467.909 110.312C443.381 110.312 392.963 121.54 357.529 138.381C324.825 162.24 251.239 223.992 253.969 221.185L253.97 221.18Z" fill="white" stroke="#414141" stroke-width="9.039" stroke-linejoin="round"/>
<path fill-rule="evenodd" clip-rule="evenodd" d="M49.956 375.82L152.336 397.157L490.116 133.447C490.116 133.447 496.528 145.361 496.528 146.693C496.528 148.025 157.448 413.093 157.448 413.093L55.0776 390.449L49.9593 375.822L49.956 375.82Z" fill="white" stroke="#414141" stroke-width="9.039" stroke-linejoin="round"/>
<path fill-rule="evenodd" clip-rule="evenodd" d="M73.1391 188.413C73.1391 188.413 63.4939 113.677 70.3788 93.0631C77.2636 72.4494 75.7992 62.1785 99.4428 46.2251C127.424 35.7353 139.684 24.2989 162.003 28.7418C184.321 33.1847 207.839 51.9773 228.936 62.1018C250.031 72.2265 408.244 190.883 416.234 199.334C418.921 203.923 432.808 213.392 442.601 233.351C450.745 252.435 459.846 269.917 467.113 295.921C474.38 321.926 473.216 352.956 472.502 370.512C471.787 388.067 471.787 388.067 471.787 388.067" fill="white"/>
<path d="M73.1391 188.413C73.1391 188.413 63.4939 113.677 70.3788 93.0631C77.2636 72.4494 75.7992 62.1785 99.4428 46.2251C127.424 35.7353 139.684 24.2989 162.003 28.7418C184.321 33.1847 207.839 51.9773 228.936 62.1018C250.031 72.2265 408.244 190.883 416.234 199.334C418.921 203.923 432.808 213.392 442.601 233.351C450.745 252.435 459.846 269.917 467.113 295.921C474.38 321.926 473.216 352.956 472.502 370.512C471.787 388.067 471.787 388.067 471.787 388.067" stroke="#414141" stroke-width="11.299" stroke-linejoin="round"/>
<path fill-rule="evenodd" clip-rule="evenodd" d="M192.038 133.245C213.052 144.17 405.755 275.098 434.006 321.797C462.254 368.496 475.193 390.077 464.918 402.747C454.644 415.417 439.243 429.52 427.71 432.743C416.177 435.966 379.206 442.098 379.206 442.098C379.206 442.098 84.1058 206.802 81.0108 200.669C77.915 194.535 62.9234 190.325 76.3167 173.985C89.7105 157.643 91.7627 140.271 122.519 131.676C159.489 125.544 175.592 123.843 192.036 133.245L192.038 133.245Z" fill="white" stroke="#414141" stroke-width="11.299" stroke-linejoin="round"/>
<path fill-rule="evenodd" clip-rule="evenodd" d="M311.269 116.195C312.003 118.82 303.194 207.669 303.194 207.669C303.194 207.669 385.659 268.1 415.101 295.24C437.169 327.275 466.456 379.929 466.456 379.929C466.456 379.929 469.86 313.894 463.373 295.898C461.906 290.649 434.609 219.044 426.269 210.056C416.461 195.819 310.284 117.882 311.269 116.195V116.195Z" fill="white" stroke="#414141" stroke-width="9.039" stroke-linejoin="round"/>
<path fill-rule="evenodd" clip-rule="evenodd" d="M303.768 207.503L236.293 331.064C236.293 331.064 322.053 396.936 375.26 437.841C404.693 440.583 422.495 429.002 432.942 424.667C443.389 420.333 473.879 399.078 468.127 383.707C461.525 360.084 437.141 314.548 411.384 284.955C379.604 259.879 300.325 205.629 303.763 207.503L303.768 207.503Z" fill="white" stroke="#414141" stroke-width="9.039" stroke-linejoin="round"/>
<path fill-rule="evenodd" clip-rule="evenodd" d="M99.9239 52.6393L106.93 156.984L451.823 411.321C451.823 411.321 442.074 420.703 440.791 421.062C439.508 421.42 92.9579 166.196 92.9579 166.196L87.2132 61.5093L99.9229 52.643L99.9239 52.6393Z" fill="white" stroke="#414141" stroke-width="9.039" stroke-linejoin="round"/>
</g>
<defs>
<clipPath id="clip0_101_2">
<rect width="533.33" height="533.33" fill="white"/>
</clipPath>
</defs>
</svg>
